<svg width="25" height="25" viewBox="0 0 25 25" fill="none" xmlns="http://www.w3.org/2000/svg">
    <g clip-path="url(#clip0_23_11)">
        <path d="M12.5 3.125C12.6375 3.125 12.774 3.125 12.9094 3.125C11.5712 4.36845 10.711 6.04151 10.4784 7.85336C10.2458 9.66521 10.6555 11.5013 11.6362 13.0424C12.6169 14.5836 14.1066 15.7323 15.8465 16.289C17.5863 16.8457 19.4662 16.7752 21.1594 16.0896C20.5081 17.6568 19.4435 19.0177 18.0794 20.0274C16.7152 21.037 15.1025 21.6573 13.4134 21.8223C11.7243 21.9872 10.0221 21.6906 8.48842 20.964C6.9547 20.2373 5.64699 19.108 4.70478 17.6965C3.76256 16.2849 3.2212 14.644 3.13842 12.9489C3.05564 11.2538 3.43456 9.56802 4.23476 8.07137C5.03495 6.57472 6.22641 5.32336 7.68204 4.45077C9.13767 3.57817 10.8029 3.11708 12.5 3.11667V3.125Z"
              stroke="#1E1E1E" stroke-width="1.83333" stroke-linecap="round" stroke-linejoin="round"/>
    </g>
    <defs>
        <clipPath id="clip0_23_11">
            <rect width="25" height="25" fill="white"/>
        </clipPath>
    </defs>
</svg>
